<svg width="361" height="374" viewBox="0 0 361 374" fill="none" xmlns="http://www.w3.org/2000/svg">
<mask id="mask0_2285_498" style="mask-type:alpha" maskUnits="userSpaceOnUse" x="6" y="5" width="346" height="363">
<path fill-rule="evenodd" clip-rule="evenodd" d="M175.833 7.1363C232.725 1.1399 297.339 7.41422 332.511 52.4809C366.589 96.146 346.363 156.279 334.429 210.35C323.147 261.466 312.639 316.467 268.145 344.116C220.428 373.768 159.239 374.191 108.058 351.02C57.6836 328.214 22.3573 281.314 10.318 227.391C-1.12712 176.13 16.5304 124.464 48.0963 82.4579C79.3256 40.9002 124.102 12.5887 175.833 7.1363Z" fill="url(#paint0_linear_2285_498)"/>
</mask>
<g mask="url(#mask0_2285_498)">
<path fill-rule="evenodd" clip-rule="evenodd" d="M175.833 7.1363C232.725 1.1399 297.339 7.41422 332.511 52.4809C366.589 96.146 346.363 156.279 334.429 210.35C323.147 261.466 312.639 316.467 268.145 344.116C220.428 373.768 159.239 374.191 108.058 351.02C57.6836 328.214 22.3573 281.314 10.318 227.391C-1.12712 176.13 16.5304 124.464 48.0963 82.4579C79.3256 40.9002 124.102 12.5887 175.833 7.1363Z" fill="#BDBDBD"/>
<path fill-rule="evenodd" clip-rule="evenodd" d="M175.833 7.1363C232.725 1.1399 297.339 7.41422 332.511 52.4809C366.589 96.146 346.363 156.279 334.429 210.35C323.147 261.466 312.639 316.467 268.145 344.116C220.428 373.768 159.239 374.191 108.058 351.02C57.6836 328.214 22.3573 281.314 10.318 227.391C-1.12712 176.13 16.5304 124.464 48.0963 82.4579C79.3256 40.9002 124.102 12.5887 175.833 7.1363Z" fill="#BABABA"/>
<path fill-rule="evenodd" clip-rule="evenodd" d="M175.833 7.1363C232.725 1.1399 297.339 7.41422 332.511 52.4809C366.589 96.146 346.363 156.279 334.429 210.35C323.147 261.466 312.639 316.467 268.145 344.116C220.428 373.768 159.239 374.191 108.058 351.02C57.6836 328.214 22.3573 281.314 10.318 227.391C-1.12712 176.13 16.5304 124.464 48.0963 82.4579C79.3256 40.9002 124.102 12.5887 175.833 7.1363Z" fill="url(#paint1_radial_2285_498)"/>
</g>
<defs>
<linearGradient id="paint0_linear_2285_498" x1="173.647" y1="6.38326" x2="186.921" y2="367.469" gradientUnits="userSpaceOnUse">
<stop stop-color="#FDAB01" stop-opacity="0.3"/>
<stop offset="1" stop-color="#FDAB01" stop-opacity="0"/>
</linearGradient>
<radialGradient id="paint1_radial_2285_498" cx="0" cy="0" r="1" gradientUnits="userSpaceOnUse" gradientTransform="translate(304.494 57.1033) rotate(124.827) scale(382.609 694.882)">
<stop stop-color="#FDAB01"/>
<stop offset="1" stop-color="#FDAB01" stop-opacity="0"/>
</radialGradient>
</defs>
</svg>
